:version 1.10
:name ASF
:units
  mass 1
  length 1
  angle deg
:documentation
  ASF file generated by Kaydara
:root
  axis xyz
  order  tx ty tz rx ry rz
  position 0 0 0
  orientation 0 0 0
:bonedata
  begin
    id 1
    name RightUpLegDummy
    direction -0.718183 -0.695806 0.00816078
    length 4.904
    axis 0 0 0 xyz
  end
  begin
    id 2
    name RightUpLeg
    direction -0.0736652 -0.994202 0.0783343
    length 17.4976
    axis -2.72909 -3.00389 -4.00133 xyz
    dof rx ry rz
  end
  begin
    id 3
    name RightLeg
    direction -0.0389037 -0.994596 -0.0962598
    length 16.5821
    axis 3.95836 -18.5909 -4.46993 xyz
    dof rx ry rz
  end
  begin
    id 4
    name RightFoot
    direction -0.311643 -0.412678 0.855906
    length 3.77069
    axis -1.99483 -18.8351 -3.27644 xyz
    dof rx ry rz
  end
  begin
    id 5
    name RightToes
    direction -0.317852 0.0389852 0.947339
    length 3.85082
    axis -2.00228 -18.1713 -3.25211 xyz
    dof rx ry rz
  end
  begin
    id 6
    name SpineDummy
    direction 8.3039e-015 1 4.44677e-016
    length 4.6813
    axis 0 0 0 xyz
  end
  begin
    id 7
    name Spine
    direction -0.000262373 0.999988 0.00493267
    length 10.1015
    axis -0.00246081 0.00062579 0.0150362 xyz
    dof rx ry rz
  end
  begin
    id 8
    name Spine1
    direction 0 0 0
    length 0
    axis -0.00349562 0.000650293 0.0196666 xyz
    dof rx ry rz
  end
  begin
    id 9
    name HEadDummy
    direction -0.000343232 0.999999 0.00123745
    length 3.43865
    axis -0.00349562 0.000650293 0.0196666 xyz
  end
  begin
    id 10
    name HEad
    direction -0.0461221 0.980933 0.188796
    length 5.12695
    axis -0.00351404 -7.04812 0.0199272 xyz
    dof rx ry rz
  end
  begin
    id 11
    name LeftShoulder1Dummy
    direction 0.998904 -0.0399089 -0.0244534
    length 3.5433
    axis -0.00349562 0.000650293 0.0196666 xyz
  end
  begin
    id 12
    name LeftShoulder1
    direction 0.99951 1.64443e-005 0.0312999
    length 4.05031
    axis -0.00349562 0.000650293 0.0196666 xyz
    dof rx ry rz
  end
  begin
    id 13
    name LeftArm
    direction 0.984791 0.0515299 0.165927
    length 12.9126
    axis -64.823 -10.7743 5.20463 xyz
    dof rx ry rz
  end
  begin
    id 14
    name LeftForeArm
    direction 0.984968 0.0534808 0.16425
    length 10.8596
    axis -30.0462 -7.70601 1.87451 xyz
    dof rx ry rz
  end
  begin
    id 15
    name LeftHand
    direction 0.975871 0.0289682 0.216418
    length 6.62295
    axis -20.1348 -6.98077 1.86072 xyz
    dof rx ry rz
  end
  begin
    id 16
    name RightShoulderDummy
    direction -0.998877 -0.0405946 -0.0244307
    length 3.5433
    axis -0.00349562 0.000650293 0.0196666 xyz
  end
  begin
    id 17
    name RightShoulder
    direction -0.998933 -0.0249743 -0.0388558
    length 4.05031
    axis -0.0205316 -4.02113 1.41395 xyz
    dof rx ry rz
  end
  begin
    id 18
    name RightArm
    direction -0.997559 0.068664 0.0127103
    length 12.9638
    axis -67.3882 1.84188 -6.15987 xyz
    dof rx ry rz
  end
  begin
    id 19
    name RightForeArm
    direction -0.991508 0.0912848 0.0926241
    length 10.8312
    axis -22.1975 3.41087 -4.28711 xyz
    dof rx ry rz
  end
  begin
    id 20
    name RightHand
    direction -0.989262 0.0600788 0.133232
    length 6.57864
    axis -12.2911 2.17515 -4.39675 xyz
    dof rx ry rz
  end
  begin
    id 21
    name LeftUpLegDummy
    direction 0.718183 -0.695806 0.00816078
    length 4.904
    axis 0 0 0 xyz
  end
  begin
    id 22
    name LeftUpLeg
    direction 0.0831398 -0.99469 0.0606531
    length 17.4976
    axis -1.71016 2.29552 4.63832 xyz
    dof rx ry rz
  end
  begin
    id 23
    name LeftLeg
    direction 0.0498442 -0.991778 -0.117862
    length 16.5821
    axis 5.13757 15.5727 5.13348 xyz
    dof rx ry rz
  end
  begin
    id 24
    name LeftFoot
    direction 0.269026 -0.433896 0.85986
    length 3.77069
    axis -0.576502 15.6961 4.10267 xyz
    dof rx ry rz
  end
  begin
    id 25
    name LeftToes
    direction 0.277311 0.0251143 0.960452
    length 3.85048
    axis -0.576502 15.6961 4.10267 xyz
    dof rx ry rz
  end
:hierarchy
  begin
    root RightUpLegDummy SpineDummy LeftUpLegDummy
    RightUpLegDummy RightUpLeg
    RightUpLeg RightLeg
    RightLeg RightFoot
    RightFoot RightToes
    SpineDummy Spine
    Spine Spine1
    Spine1 HEadDummy LeftShoulder1Dummy RightShoulderDummy
    HEadDummy HEad
    LeftShoulder1Dummy LeftShoulder1
    LeftShoulder1 LeftArm
    LeftArm LeftForeArm
    LeftForeArm LeftHand
    RightShoulderDummy RightShoulder
    RightShoulder RightArm
    RightArm RightForeArm
    RightForeArm RightHand
    LeftUpLegDummy LeftUpLeg
    LeftUpLeg LeftLeg
    LeftLeg LeftFoot
    LeftFoot LeftToes
  end

:SAMPLES-PER-SECOND 30
:FULLY-SPECIFIED
:DEGREES
95
root  4.66633 36.1944 -39.0654 174.432 3.63278 179.864
RightUpLeg  -10.4073 -7.66949 -3.77312
RightLeg  73.5354 11.8909 -19.1959
RightFoot  0.192807 0.28525 -2.43082
RightToes  3.97569e-016 -3.18055e-015 -2.98177e-016
Spine  12.1587 5.70644 10.2716
Spine1  5.13353 11.1939 -20.3389
HEad  18.9496 -10.7657 1.57379
LeftShoulder1  -3.88251e-019 9.70628e-020 -3.87848e-018
LeftArm  -39.9356 72.0533 -65.1496
LeftForeArm  -9.73981 -0.907747 2.91186
LeftHand  -0.371889 1.79783 13.5007
RightShoulder  5.80912 9.24816 29.1448
RightArm  21.5582 -46.3103 21.2951
RightForeArm  -45.0901 62.5798 -53.1915
RightHand  -3.06928 8.13311 -25.775
LeftUpLeg  -27.9967 1.79633 -3.73232
LeftLeg  42.0483 -6.40178 7.97372
LeftFoot  -8.32617 -0.162042 3.38954
LeftToes  5.30048e-011 -3.04284e-011 -3.73785e-011
96
root  4.91546 37.1115 -40.6315 175.233 2.33722 179.885
RightUpLeg  -15.9964 -8.58011 -1.38083
RightLeg  71.3347 10.5651 -21.8829
RightFoot  0.314725 0.315374 -2.73236
RightToes  3.97569e-016 -3.18055e-015 -2.98177e-016
Spine  10.8342 5.09977 8.25205
Spine1  4.86242 9.824 -18.0924
HEad  21.7346 -10.1196 0.25996
LeftShoulder1  -3.88251e-019 9.70628e-020 -3.87848e-018
LeftArm  -36.5497 65.2781 -65.3193
LeftForeArm  -10.2682 -7.10854 1.32267
LeftHand  -0.589156 0.707561 16.0826
RightShoulder  5.99585 9.37544 29.9215
RightArm  27.6354 -50.1494 19.1933
RightForeArm  -31.0638 57.3307 -41.2675
RightHand  -2.35762 7.88416 -20.375
LeftUpLeg  -23.3727 -0.378125 -3.4035
LeftLeg  36.9435 -5.26463 7.76636
LeftFoot  -8.12861 -0.13792 2.6668
LeftToes  5.30048e-011 -3.04284e-011 -3.73785e-011
97
root  5.20546 38.0079 -42.1197 175.43 0.917023 -179.884
RightUpLeg  -20.2413 -9.48602 0.850553
RightLeg  67.1232 9.25384 -20.4975
RightFoot  2.03572 0.382995 -2.97884
RightToes  3.97569e-016 -3.18055e-015 -2.98177e-016
Spine  10.4537 4.0157 5.66616
Spine1  4.54387 7.76637 -14.9629
HEad  22.5245 -8.49529 -0.509981
LeftShoulder1  -3.88251e-019 9.70628e-020 -3.87848e-018
LeftArm  -29.4432 60.1444 -64.6468
LeftForeArm  -15.5456 -17.0297 0.323324
LeftHand  -0.841046 -1.19842 15.9418
RightShoulder  6.22223 9.61724 30.6542
RightArm  30.1681 -52.0948 19.2889
RightForeArm  -19.3189 47.8299 -28.718
RightHand  -2.01585 7.73754 -17.6922
LeftUpLeg  -17.9906 -1.8621 -2.82295
LeftLeg  31.2775 -4.94777 6.69984
LeftFoot  -8.69093 -0.0985596 1.94525
LeftToes  5.30048e-011 -3.04284e-011 -3.73785e-011
98
root  5.4579 38.7363 -43.6153 175.36 -0.146683 -179.092
RightUpLeg  -23.1159 -10.3408 3.19373
RightLeg  60.7225 7.78153 -17.8462
RightFoot  1.95324 0.391276 -3.0347
RightToes  3.97569e-016 -3.18055e-015 -2.98177e-016
Spine  10.5017 2.77508 3.94869
Spine1  4.02628 5.62272 -11.9589
HEad  22.12 -6.28159 -1.38186
LeftShoulder1  -3.88251e-019 9.70628e-020 -3.87848e-018
LeftArm  -17.607 55.5284 -63.2936
LeftForeArm  -25.8078 -27.2969 3.18217
LeftHand  -1.07044 -3.6034 14.622
RightShoulder  6.52698 9.89836 31.7049
RightArm  28.8591 -52.2483 20.5155
RightForeArm  -9.37973 34.6581 -18.6905
RightHand  -2.26466 7.61437 -19.9571
LeftUpLeg  -12.47 -2.77014 -1.69528
LeftLeg  25.6914 -4.8279 5.57831
LeftFoot  -8.79128 -0.0570723 0.917032
LeftToes  5.30048e-011 -3.04284e-011 -3.73785e-011
99
root  5.70624 39.1761 -45.1267 175.768 -1.53978 -178.624
RightUpLeg  -25.3699 -11.8878 4.74128
RightLeg  52.0466 6.19232 -14.9149
RightFoot  1.51327 0.145745 -1.26486
RightToes  3.97569e-016 -3.18055e-015 -2.98177e-016
Spine  10.2325 1.60938 1.12495
Spine1  3.02461 3.20255 -7.60745
HEad  21.6947 -4.02266 -2.76023
LeftShoulder1  -3.88251e-019 9.70628e-020 -3.87848e-018
LeftArm  -11.8035 50.8323 -61.7141
LeftForeArm  -31.4427 -35.7811 6.75869
LeftHand  -1.17682 -5.23546 13.5379
RightShoulder  6.695 10.034 32.3095
RightArm  21.5589 -51.8991 20.4631
RightForeArm  1.19805 21.7037 -11.0672
RightHand  -2.55018 6.94338 -23.6146
LeftUpLeg  -8.27109 -5.09883 -1.07091
LeftLeg  21.145 -3.69179 5.3176
LeftFoot  -8.20842 -0.023888 0.0371793
LeftToes  5.30048e-011 -3.04284e-011 -3.73785e-011
100
root  6.01791 39.3296 -46.6463 176.227 -3.84454 -179.208
RightUpLeg  -26.4062 -14.4539 4.74779
RightLeg  41.3734 5.47819 -11.0796
RightFoot  3.25716 -0.121768 0.702508
RightToes  3.97569e-016 -3.18055e-015 -2.98177e-016
Spine  10.0169 0.515712 -4.38179
Spine1  1.9562 0.374478 -0.96059
HEad  21.1893 -2.19764 -4.20299
LeftShoulder1  -3.88251e-019 9.70628e-020 -3.87848e-018
LeftArm  -11.0552 45.4311 -60.3111
LeftForeArm  -33.7408 -41.9947 8.50019
LeftHand  -1.16162 -5.60815 12.9264
RightShoulder  6.6048 9.98318 31.9378
RightArm  5.88706 -52.0249 17.6085
RightForeArm  13.3281 12.9866 -5.04447
RightHand  -2.24668 5.03891 -24.4366
LeftUpLeg  -4.95909 -7.13896 -1.74614
LeftLeg  17.9482 -3.71185 5.45535
LeftFoot  -8.92022 -0.0082326 -0.44147
LeftToes  5.30048e-011 -3.04284e-011 -3.73785e-011
101
root  6.36065 39.2941 -48.2047 175.691 -5.99329 179.951
RightUpLeg  -24.8798 -17.2188 4.03908
RightLeg  29.259 7.38037 -6.45114
RightFoot  4.77755 -0.240692 1.3632
RightToes  3.97569e-016 -3.18055e-015 -2.98177e-016
Spine  10.6407 -0.260944 -10.0705
Spine1  1.30523 -2.10364 5.9176
HEad  20.3901 -0.838359 -5.27094
LeftShoulder1  -3.88251e-019 9.70628e-020 -3.87848e-018
LeftArm  -11.0932 39.3559 -58.8127
LeftForeArm  -35.6941 -45.7437 9.78999
LeftHand  -1.15883 -5.70575 12.7857
RightShoulder  6.42761 9.85119 31.2717
RightArm  2.59053 -52.7668 12.9322
RightForeArm  6.3045 7.57626 -5.81642
RightHand  -1.38097 1.41884 -22.9739
LeftUpLeg  -0.813587 -5.47856 -2.253
LeftLeg  15.5583 -7.3032 5.04894
LeftFoot  -11.3658 -0.0146423 -1.20932
LeftToes  5.30048e-011 -3.04284e-011 -3.73785e-011
102
root  6.6758 39.1127 -49.8477 174.036 -6.92926 179.601
RightUpLeg  -20.4992 -16.758 2.42259
RightLeg  16.7155 8.92523 -2.19644
RightFoot  3.44141 -0.339936 2.18816
RightToes  3.97569e-016 -3.18055e-015 -2.98177e-016
Spine  11.5602 -0.528489 -13.5954
Spine1  1.45748 -3.70898 10.9491
HEad  19.7892 0.416742 -6.22732
LeftShoulder1  -3.88251e-019 9.70628e-020 -3.87848e-018
LeftArm  -11.6041 33.4851 -57.0402
LeftForeArm  -36.5964 -47.7329 10.5546
LeftHand  -1.2775 -6.33921 13.2911
RightShoulder  6.24254 9.66512 30.6634
RightArm  2.94398 -53.6088 7.0173
RightForeArm  -4.60685 5.37129 -6.73017
RightHand  -0.5589 -2.64626 -22.6831
LeftUpLeg  4.24644 -3.322 -1.46141
LeftLeg  14.3698 -10.5952 4.27757
LeftFoot  -13.912 -0.0548968 -2.49075
LeftToes  5.30048e-011 -3.04284e-011 -3.73785e-011
103
root  6.96763 38.7797 -51.5964 172.419 -7.05788 179.487
RightUpLeg  -15.0818 -7.509 -1.77508
RightLeg  6.6338 0.790875 1.16815
RightFoot  2.25041 -0.394594 2.76654
RightToes  3.97569e-016 -3.18055e-015 -2.98177e-016
Spine  11.3561 -0.889793 -15.217
Spine1  2.68118 -4.97098 14.1315
HEad  19.9305 1.899 -7.3518
LeftShoulder1  -3.88251e-019 9.70628e-020 -3.87848e-018
LeftArm  -12.2893 28.7608 -54.9049
LeftForeArm  -37.5127 -48.7986 10.9671
LeftHand  -1.44806 -7.09357 14.1162
RightShoulder  5.99134 9.41272 29.816
RightArm  4.89903 -54.6972 1.13674
RightForeArm  -12.147 4.63695 -7.25359
RightHand  -0.209124 -4.49674 -23.8863
LeftUpLeg  8.80794 -3.98947 -0.746802
LeftLeg  14.6346 -10.4033 4.06803
LeftFoot  -16.2515 -0.124413 -3.05991
LeftToes  5.30048e-011 -3.04284e-011 -3.73785e-011
104
root  7.23977 38.3209 -53.3671 171.777 -6.72731 179.883
RightUpLeg  -13.6092 -2.0028 -2.41498
RightLeg  4.02627 -5.46399 1.05705
RightFoot  4.37798 -0.181239 1.07385
RightToes  3.97569e-016 -3.18055e-015 -2.98177e-016
Spine  9.91405 -1.94986 -14.248
Spine1  4.40013 -6.18326 15.3275
HEad  20.8019 3.68392 -8.30311
LeftShoulder1  -3.88251e-019 9.70628e-020 -3.87848e-018
LeftArm  -12.9324 25.7576 -52.3003
LeftForeArm  -38.5198 -49.7145 11.3265
LeftHand  -1.47966 -7.07683 14.4308
RightShoulder  5.85811 9.27385 29.3661
RightArm  8.94131 -55.656 -5.31265
RightForeArm  -14.9716 4.89096 -7.07802
RightHand  -0.261573 -4.25517 -24.4024
LeftUpLeg  11.6886 -7.10662 -0.190134
LeftLeg  16.5032 -7.01403 4.05825
LeftFoot  -19.7352 -0.234751 -3.06771
LeftToes  5.30048e-011 -3.04284e-011 -3.73785e-011
105
root  7.48664 37.7296 -55.053 171.605 -5.31728 -178.333
RightUpLeg  -16.3719 -2.84722 0.697151
RightLeg  11.2958 -4.70903 -2.25745
RightFoot  7.44051 0.302822 -1.87297
RightToes  3.97569e-016 -3.18055e-015 -2.98177e-016
Spine  8.83609 -3.22891 -9.43579
Spine1  5.24656 -6.61442 14.3695
HEad  21.7604 5.67359 -8.84806
LeftShoulder1  -3.88251e-019 9.70628e-020 -3.87848e-018
LeftArm  -14.0346 25.0515 -50.0344
LeftForeArm  -38.3943 -51.3365 12.107
LeftHand  -1.37194 -6.386 14.1973
RightShoulder  6.01818 9.36021 30.077
RightArm  14.1373 -55.4578 -12.3113
RightForeArm  -14.2573 5.57114 -6.31254
RightHand  -0.350523 -3.76398 -23.2309
LeftUpLeg  12.2628 -6.6673 2.83467
LeftLeg  21.8573 -6.71063 3.87999
LeftFoot  -24.0328 -0.55716 -5.0151
LeftToes  5.30048e-011 -3.04284e-011 -3.73785e-011
106
root  7.77329 37.1663 -56.6384 170.981 -2.92693 -175.677
RightUpLeg  -18.9031 -7.97957 6.08697
RightLeg  20.2276 2.83289 -4.89033
RightFoot  7.01111 0.70694 -4.18713
RightToes  3.97569e-016 -3.18055e-015 -2.98177e-016
Spine  9.45888 -3.76681 -3.89555
Spine1  4.43108 -6.12826 13.2333
HEad  22.1786 7.69983 -9.26433
LeftShoulder1  -3.88251e-019 9.70628e-020 -3.87848e-018
LeftArm  -16.4074 27.2499 -49.496
LeftForeArm  -37.2499 -54.2541 13.7284
LeftHand  -1.36817 -6.1535 14.4362
RightShoulder  6.24789 9.45026 31.1602
RightArm  17.0554 -53.972 -16.7723
RightForeArm  -11.3352 5.5993 -5.66855
RightHand  -0.315518 -3.75023 -20.6467
LeftUpLeg  11.0051 -3.00738 8.07649
LeftLeg  31.6167 -9.73587 3.4506
LeftFoot  -24.2728 -0.929605 -9.08561
LeftToes  5.30048e-011 -3.04284e-011 -3.73785e-011
